<svg width="104" height="104" viewBox="0 0 104 104" fill="none" xmlns="http://www.w3.org/2000/svg">
<path fill-rule="evenodd" clip-rule="evenodd" d="M44.7005 20.1105C45.3871 19.8141 46.1822 20.1345 46.4765 20.826L49.7226 28.4552C50.0168 29.1467 49.6988 29.9476 49.0122 30.244C48.3256 30.5404 47.5305 30.2201 47.2362 29.5285L43.9901 21.8993C43.6958 21.2078 44.0139 20.4069 44.7005 20.1105Z" fill="#333333"/>
<path fill-rule="evenodd" clip-rule="evenodd" d="M50.1277 20.1105C50.822 19.8141 51.626 20.1345 51.9236 20.826L55.2062 28.4552C55.5038 29.1467 55.1821 29.9476 54.4878 30.244C53.7935 30.5404 52.9894 30.2201 52.6919 29.5285L49.4093 21.8993C49.1117 21.2078 49.4333 20.4069 50.1277 20.1105Z" fill="#333333"/>
<path fill-rule="evenodd" clip-rule="evenodd" d="M55.5437 20.1105C56.238 19.8141 57.0421 20.1345 57.3396 20.826L60.6222 28.4552C60.9198 29.1467 60.5982 29.9476 59.9038 30.244C59.2095 30.5404 58.4055 30.2201 58.1079 29.5285L54.8253 21.8993C54.5277 21.2078 54.8494 20.4069 55.5437 20.1105Z" fill="#333333"/>
<path d="M58.1667 26.2797C48.1803 26.2797 40.0848 34.4023 40.0848 44.422L40.0848 52.593C40.0848 54.1228 38.8488 55.3629 37.3242 55.3629L19.8462 55.3629C18.8266 55.3629 18 56.1922 18 57.2152C18 72.5603 30.3983 85 45.6923 85L58.5256 85C68.3138 85 76.2486 77.0386 76.2486 67.2177C76.2486 67.164 76.2483 67.1103 76.2476 67.0568C76.2483 66.9905 76.2486 66.9241 76.2486 66.8576L76.2486 44.422C76.2486 34.4023 68.1531 26.2797 58.1667 26.2797Z" fill="#68E4FF"/>
<path fill-rule="evenodd" clip-rule="evenodd" d="M74.6143 67.0588L74.6145 67.0393C74.6149 67.0084 74.6151 66.9774 74.6153 66.9464C74.6154 66.9168 74.6155 66.8873 74.6155 66.8576L74.6155 44.422C74.6155 35.2961 67.2441 27.9108 58.1667 27.9108C49.0893 27.9108 41.7179 35.2961 41.7179 44.422L41.7179 52.593C41.7179 55.0166 39.7578 56.994 37.3242 56.994L19.8462 56.994C19.7355 56.994 19.6331 57.086 19.6331 57.2152C19.6331 71.6665 31.3072 83.3689 45.6923 83.3689L58.5256 83.3689C67.4048 83.3689 74.6155 76.1448 74.6155 67.2177C74.6155 67.1711 74.6152 67.1246 74.6146 67.0784L74.6143 67.0588ZM40.0848 44.422C40.0848 34.4023 48.1803 26.2797 58.1667 26.2797C68.1531 26.2797 76.2486 34.4023 76.2486 44.422L76.2486 66.8576C76.2486 66.9241 76.2483 66.9905 76.2476 67.0568C76.2483 67.1103 76.2486 67.164 76.2486 67.2177C76.2486 77.0386 68.3138 85 58.5256 85L45.6923 85C30.3983 85 18 72.5603 18 57.2152C18 56.1922 18.8266 55.3629 19.8462 55.3629L37.3242 55.3629C38.8488 55.3629 40.0848 54.1228 40.0848 52.593L40.0848 44.422Z" fill="#333333"/>
<path d="M48 43.3799C48.2692 42.0539 49.4415 41.0559 50.8469 41.0559C52.2523 41.0559 53.4247 42.0539 53.6938 43.3799" stroke="#333333" stroke-width="1.74302" stroke-linecap="round"/>
<path d="M63.106 43.3799C63.3751 42.0539 64.5474 41.0558 65.9529 41.0558C67.3583 41.0558 68.5306 42.0539 68.7998 43.3799" stroke="#333333" stroke-width="1.74302" stroke-linecap="round"/>
<path fill-rule="evenodd" clip-rule="evenodd" d="M81.042 48.5713C81.4322 50.1208 80.5014 51.6956 78.9632 52.0886L69.2774 53.0324L78.769 53.6711C80.3305 53.956 81.3671 55.4622 81.0842 57.0352C80.8013 58.6082 79.3061 59.6524 77.7446 59.3674L61.2225 56.3523C59.8922 56.1095 58.9098 54.9653 58.8631 53.6042C58.8163 52.243 59.7178 51.0332 61.0284 50.6984L77.5504 46.4771C79.0886 46.0841 80.6519 47.0217 81.042 48.5713Z" fill="white"/>
<path fill-rule="evenodd" clip-rule="evenodd" d="M77.3819 45.7013C79.3716 45.1938 81.3848 46.406 81.886 48.3931C82.3865 50.3779 81.1939 52.4037 79.2066 52.9105C79.1695 52.92 79.1318 52.9269 79.0937 52.9311C81.0341 53.36 82.2948 55.2561 81.9401 57.2245C81.5769 59.2409 79.6526 60.59 77.6327 60.222L61.0351 57.1984C59.3159 56.8852 58.0539 55.4116 57.9939 53.6674C57.9339 51.9234 59.0913 50.3662 60.7844 49.9344L77.3819 45.7013ZM80.2985 48.7915C80.0158 47.6708 78.8882 47.0026 77.7874 47.2833L61.1898 51.5164C60.2499 51.7561 59.596 52.6254 59.6299 53.6114C59.6638 54.5971 60.3756 55.4183 61.3292 55.592L77.9268 58.6157C79.0441 58.8192 80.1239 58.0741 80.329 56.9357C80.5319 55.8097 79.7997 54.7406 78.7036 54.5177L69.2189 53.8806C68.7939 53.852 68.4619 53.5031 68.4555 53.0782C68.4491 52.6533 68.7705 52.2946 69.1944 52.2534L78.8568 51.3135C79.9271 51.0088 80.577 49.8956 80.2985 48.7915Z" fill="#333333"/>
</svg>
