<svg width="104" height="104" viewBox="0 0 104 104" fill="none" xmlns="http://www.w3.org/2000/svg">
<path d="M58.1667 26.2797C48.1803 26.2797 40.0848 34.4023 40.0848 44.4221L40.0848 52.5931C40.0848 54.1228 38.8488 55.3629 37.3242 55.3629L19.8462 55.3629C18.8266 55.3629 18 56.1922 18 57.2152C18 72.5603 30.3983 85 45.6923 85L58.5256 85C68.3138 85 76.2486 77.0386 76.2486 67.2177C76.2486 67.164 76.2483 67.1104 76.2476 67.0568C76.2483 66.9905 76.2486 66.9241 76.2486 66.8577L76.2486 44.4221C76.2486 34.4023 68.1531 26.2797 58.1667 26.2797Z" fill="#F76B3F"/>
<path d="M33.5516 71.7931L30.2412 64.069" stroke="#333333" stroke-width="1.65517" stroke-linecap="round"/>
<path d="M38.5174 71.7931L35.207 64.069" stroke="#333333" stroke-width="1.65517" stroke-linecap="round"/>
<path d="M43.4827 71.7931L40.1724 64.069" stroke="#333333" stroke-width="1.65517" stroke-linecap="round"/>
<path fill-rule="evenodd" clip-rule="evenodd" d="M74.6143 67.0589L74.6145 67.0393C74.6149 67.0084 74.6151 66.9774 74.6153 66.9464C74.6154 66.9169 74.6155 66.8873 74.6155 66.8577L74.6155 44.4221C74.6155 35.2961 67.2441 27.9108 58.1667 27.9108C49.0893 27.9108 41.7179 35.2961 41.7179 44.4221L41.7179 52.5931C41.7179 55.0166 39.7578 56.994 37.3242 56.994L19.8462 56.994C19.7355 56.994 19.6331 57.086 19.6331 57.2152C19.6331 71.6665 31.3072 83.3689 45.6923 83.3689L58.5256 83.3689C67.4048 83.3689 74.6155 76.1448 74.6155 67.2177C74.6155 67.1711 74.6152 67.1247 74.6146 67.0784L74.6143 67.0589ZM40.0848 44.4221C40.0848 34.4023 48.1803 26.2797 58.1667 26.2797C68.1531 26.2797 76.2486 34.4023 76.2486 44.4221L76.2486 66.8577C76.2486 66.9241 76.2483 66.9905 76.2476 67.0568C76.2483 67.1104 76.2486 67.164 76.2486 67.2177C76.2486 77.0386 68.3138 85 58.5256 85L45.6923 85C30.3983 85 18 72.5603 18 57.2152C18 56.1922 18.8266 55.3629 19.8462 55.3629L37.3242 55.3629C38.8488 55.3629 40.0848 54.1228 40.0848 52.5931L40.0848 44.4221Z" fill="#333333"/>
<path fill-rule="evenodd" clip-rule="evenodd" d="M46.1743 42.147C46.5685 41.9287 47.0654 42.0706 47.2841 42.4641C47.7795 43.3553 48.7299 43.9554 49.8195 43.9554C50.2704 43.9554 50.6358 44.3203 50.6358 44.7703C50.6358 45.2203 50.2704 45.5851 49.8195 45.5851C48.113 45.5851 46.6281 44.6428 45.8566 43.2549C45.6378 42.8614 45.7801 42.3654 46.1743 42.147Z" fill="white"/>
<path fill-rule="evenodd" clip-rule="evenodd" d="M62.291 42.147C62.6852 41.9287 63.1821 42.0706 63.4008 42.4641C63.8962 43.3553 64.8466 43.9554 65.9362 43.9554C66.3871 43.9554 66.7525 44.3203 66.7525 44.7703C66.7525 45.2203 66.3871 45.5851 65.9362 45.5851C64.2297 45.5851 62.7448 44.6428 61.9733 43.2549C61.7545 42.8614 61.8968 42.3654 62.291 42.147Z" fill="white"/>
<path d="M55.0687 40.2414C55.0687 43.2885 52.7221 45.7586 49.8273 45.7586C46.9326 45.7586 44.5859 43.2885 44.5859 40.2414C47.4807 40.2414 55.0687 40.2414 55.0687 40.2414Z" fill="white" stroke="#333333" stroke-width="1.65517" stroke-linejoin="round"/>
<path d="M52.3102 40.8966C52.3102 42.363 51.1987 43.5517 49.8275 43.5517C48.4563 43.5517 47.3447 42.363 47.3447 40.8966C47.3447 40.462 47.4424 40.0518 47.6154 39.6897C47.6154 39.6897 48.8627 39.6897 49.8275 39.6897C50.7923 39.6897 52.0395 39.6897 52.0395 39.6897C52.2126 40.0518 52.3102 40.462 52.3102 40.8966Z" fill="#333333"/>
<path d="M71.0687 40.2414C71.0687 43.2885 68.7221 45.7586 65.8273 45.7586C62.9326 45.7586 60.5859 43.2885 60.5859 40.2414C63.4807 40.2414 71.0687 40.2414 71.0687 40.2414Z" fill="white" stroke="#333333" stroke-width="1.65517" stroke-linejoin="round"/>
<path d="M68.3102 40.8966C68.3102 42.363 67.1987 43.5517 65.8275 43.5517C64.4563 43.5517 63.3447 42.363 63.3447 40.8966C63.3447 40.462 63.4424 40.0518 63.6154 39.6897C63.6154 39.6897 64.8627 39.6897 65.8275 39.6897C66.7923 39.6897 68.0395 39.6897 68.0395 39.6897C68.2126 40.0518 68.3102 40.462 68.3102 40.8966Z" fill="#333333"/>
<path fill-rule="evenodd" clip-rule="evenodd" d="M81.042 48.5713C81.4322 50.1208 80.5014 51.6956 78.9632 52.0886L69.2774 53.0324L78.769 53.6711C80.3305 53.956 81.3671 55.4622 81.0842 57.0352C80.8013 58.6083 79.3061 59.6524 77.7446 59.3675L61.2225 56.3523C59.8922 56.1095 58.9098 54.9653 58.8631 53.6042C58.8163 52.2431 59.7178 51.0332 61.0284 50.6984L77.5504 46.4772C79.0886 46.0842 80.6519 47.0217 81.042 48.5713Z" fill="white"/>
<path fill-rule="evenodd" clip-rule="evenodd" d="M77.3819 45.7013C79.3716 45.1938 81.3848 46.406 81.886 48.3931C82.3865 50.3779 81.1939 52.4037 79.2066 52.9105C79.1695 52.92 79.1318 52.9269 79.0937 52.9311C81.0341 53.36 82.2948 55.2561 81.9401 57.2245C81.5769 59.2409 79.6526 60.59 77.6327 60.222L61.0351 57.1984C59.3159 56.8852 58.0539 55.4116 57.9939 53.6674C57.9339 51.9234 59.0913 50.3662 60.7844 49.9344L77.3819 45.7013ZM80.2985 48.7915C80.0158 47.6708 78.8882 47.0026 77.7874 47.2833L61.1898 51.5164C60.2499 51.7561 59.596 52.6254 59.6299 53.6114C59.6638 54.5971 60.3756 55.4183 61.3292 55.592L77.9268 58.6157C79.0441 58.8192 80.1239 58.0741 80.329 56.9357C80.5319 55.8097 79.7997 54.7406 78.7036 54.5177L69.2189 53.8806C68.7939 53.852 68.4619 53.5031 68.4555 53.0782C68.4491 52.6533 68.7705 52.2946 69.1944 52.2534L78.8568 51.3135C79.9271 51.0088 80.577 49.8956 80.2985 48.7915Z" fill="#333333"/>
</svg>
