<svg width="104" height="104" viewBox="0 0 104 104" fill="none" xmlns="http://www.w3.org/2000/svg">
<path fill-rule="evenodd" clip-rule="evenodd" d="M45.9558 20.3718C46.6513 20.0713 47.4567 20.3961 47.7548 21.0974L51.0431 28.834C51.3412 29.5353 51.019 30.3475 50.3235 30.648C49.6279 30.9486 48.8225 30.6237 48.5244 29.9224L45.2361 22.1859C44.9381 21.4846 45.2602 20.6724 45.9558 20.3718Z" fill="#333333"/>
<path fill-rule="evenodd" clip-rule="evenodd" d="M51.4534 20.3718C52.1567 20.0713 52.9712 20.3961 53.2726 21.0974L56.5979 28.834C56.8993 29.5353 56.5735 30.3475 55.8701 30.648C55.1668 30.9486 54.3523 30.6237 54.0509 29.9224L50.7257 22.1859C50.4242 21.4846 50.75 20.6724 51.4534 20.3718Z" fill="#333333"/>
<path fill-rule="evenodd" clip-rule="evenodd" d="M56.9407 20.3718C57.644 20.0713 58.4585 20.3961 58.7599 21.0974L62.0852 28.834C62.3866 29.5353 62.0608 30.3475 61.3575 30.648C60.6541 30.9486 59.8396 30.6237 59.5382 29.9224L56.213 22.1859C55.9115 21.4846 56.2373 20.6724 56.9407 20.3718Z" fill="#333333"/>
<path d="M59.5974 26.6279C49.4814 26.6279 41.2807 34.8649 41.2807 45.0257L41.2807 53.3117C41.2807 54.8629 40.0287 56.1205 38.4843 56.1205L20.7793 56.1205C19.7465 56.1205 18.9092 56.9615 18.9092 57.9989C18.9092 73.56 31.4684 86.1748 46.961 86.1748L59.961 86.1748C69.8762 86.1748 77.9141 78.1013 77.9141 68.1422C77.9141 68.0877 77.9138 68.0333 77.913 67.979C77.9138 67.9118 77.9141 67.8445 77.9141 67.7771L77.9141 45.0257C77.9141 34.8649 69.7134 26.6279 59.5974 26.6279Z" fill="#FEE900"/>
<path fill-rule="evenodd" clip-rule="evenodd" d="M76.2586 67.9811L76.2588 67.9613C76.2591 67.9299 76.2594 67.8985 76.2595 67.8671C76.2597 67.8371 76.2598 67.8071 76.2598 67.7771L76.2598 45.0257C76.2598 35.7713 68.7927 28.282 59.5974 28.282C50.4022 28.282 42.9351 35.7713 42.9351 45.0257L42.9351 53.3117C42.9351 55.7693 40.9495 57.7746 38.4843 57.7746L20.7793 57.7746C20.6673 57.7746 20.5635 57.8679 20.5635 57.9989C20.5635 72.6536 32.3892 84.5207 46.961 84.5207L59.961 84.5207C68.9554 84.5207 76.2598 77.1949 76.2598 68.1422C76.2598 68.0949 76.2595 68.0478 76.2588 68.001L76.2586 67.9811ZM41.2807 45.0257C41.2807 34.8649 49.4814 26.6279 59.5974 26.6279C69.7134 26.6279 77.9141 34.8649 77.9141 45.0257L77.9141 67.7771C77.9141 67.8445 77.9138 67.9118 77.913 67.979C77.9138 68.0333 77.9141 68.0877 77.9141 68.1422C77.9141 78.1013 69.8762 86.1748 59.961 86.1748L46.961 86.1748C31.4684 86.1748 18.9092 73.56 18.9092 57.9989C18.9092 56.9615 19.7465 56.1205 20.7793 56.1205L38.4843 56.1205C40.0287 56.1205 41.2807 54.8629 41.2807 53.3117L41.2807 45.0257Z" fill="#333333"/>
<path d="M74.0527 39.8599C74.0527 38.9497 73.3128 38.2119 72.4002 38.2119L46.5754 38.2119C45.6627 38.2119 44.9229 38.9497 44.9229 39.8599L44.9229 40.3763C44.9229 44.3441 47.8678 47.5606 51.5006 47.5606C55.1334 47.5606 58.0783 44.3441 58.0783 40.3763L60.8973 40.3763C60.8973 44.3441 63.8422 47.5606 67.475 47.5606C71.1078 47.5606 74.0527 44.3441 74.0527 40.3763L74.0527 39.8599Z" fill="#333333"/>
<path fill-rule="evenodd" clip-rule="evenodd" d="M47.4493 42.7187C47.8486 42.4973 48.352 42.6412 48.5735 43.0403C49.0753 43.9439 50.038 44.5526 51.1418 44.5526C51.5985 44.5526 51.9687 44.9225 51.9687 45.3789C51.9687 45.8352 51.5985 46.2052 51.1418 46.2052C49.4132 46.2052 47.909 45.2496 47.1274 43.8421C46.9059 43.4431 47.0499 42.9401 47.4493 42.7187Z" fill="white"/>
<path fill-rule="evenodd" clip-rule="evenodd" d="M63.7754 42.7187C64.1748 42.4973 64.6781 42.6412 64.8997 43.0403C65.4015 43.9439 66.3642 44.5526 67.468 44.5526C67.9247 44.5526 68.2949 44.9225 68.2949 45.3789C68.2949 45.8352 67.9247 46.2052 67.468 46.2052C65.7394 46.2052 64.2352 45.2496 63.4536 43.8421C63.232 43.4431 63.3761 42.9401 63.7754 42.7187Z" fill="white"/>
<path fill-rule="evenodd" clip-rule="evenodd" d="M82.7704 49.2329C83.1656 50.8043 82.2228 52.4012 80.6646 52.7998L70.8531 53.7568L80.4679 54.4045C82.0497 54.6935 83.0997 56.2209 82.8132 57.816C82.5266 59.4112 81.012 60.4701 79.4302 60.1811L62.6936 57.1235C61.346 56.8773 60.3509 55.717 60.3035 54.3367C60.2562 52.9564 61.1694 51.7295 62.4969 51.39L79.2335 47.1093C80.7917 46.7108 82.3753 47.6616 82.7704 49.2329Z" fill="white"/>
<path fill-rule="evenodd" clip-rule="evenodd" d="M79.0619 46.3227C81.0774 45.8081 83.1168 47.0374 83.6244 49.0524C84.1315 51.0651 82.9234 53.1195 80.9103 53.6335C80.8727 53.6431 80.8345 53.65 80.7959 53.6543C82.7615 54.0892 84.0385 56.012 83.6793 58.0081C83.3113 60.0529 81.3621 61.421 79.3159 61.0479L62.5029 57.9817C60.7613 57.6641 59.483 56.1697 59.4222 54.401C59.3614 52.6324 60.5338 51.0533 62.2488 50.6154L79.0619 46.3227ZM82.0164 49.4565C81.73 48.3199 80.5878 47.6423 79.4726 47.927L62.6596 52.2197C61.7074 52.4628 61.045 53.3443 61.0794 54.3442C61.1137 55.3438 61.8348 56.1765 62.8008 56.3527L79.6138 59.4189C80.7457 59.6253 81.8395 58.8698 82.0473 57.7152C82.2527 56.5735 81.5111 55.4893 80.4008 55.2632L70.7929 54.6171C70.3623 54.5882 70.026 54.2343 70.0196 53.8035C70.0131 53.3726 70.3386 53.0088 70.7681 52.967L80.5559 52.0139C81.6401 51.705 82.2984 50.5761 82.0164 49.4565Z" fill="#333333"/>
</svg>
