<svg width="302" height="307" viewBox="0 0 302 307" fill="none" xmlns="http://www.w3.org/2000/svg">
    <path fill-rule="evenodd" clip-rule="evenodd" d="M125.993 0.521431C129.233 -0.877144 132.985 0.634547 134.373 3.89789L149.691 39.898C151.08 43.1613 149.579 46.9405 146.339 48.3391C143.099 49.7377 139.347 48.226 137.958 44.9626L122.641 8.96258C121.252 5.69924 122.753 1.92001 125.993 0.521431Z" fill="#333333"/>
    <path fill-rule="evenodd" clip-rule="evenodd" d="M151.602 0.521431C154.879 -0.877144 158.673 0.634547 160.077 3.89789L175.567 39.898C176.971 43.1613 175.453 46.9405 172.177 48.3391C168.901 49.7377 165.106 48.226 163.702 44.9626L148.212 8.96258C146.808 5.69924 148.326 1.92001 151.602 0.521431Z" fill="#333333"/>
    <path fill-rule="evenodd" clip-rule="evenodd" d="M177.159 0.521431C180.436 -0.877144 184.23 0.634547 185.634 3.89789L201.124 39.898C202.528 43.1613 201.01 46.9405 197.734 48.3391C194.458 49.7377 190.664 48.226 189.259 44.9626L173.77 8.96258C172.365 5.69924 173.883 1.92001 177.159 0.521431Z" fill="#333333"/>
    <path d="M189.537 29.6324C142.413 29.6324 104.213 67.961 104.213 115.242L104.213 153.799C104.213 161.017 98.3804 166.869 91.186 166.869L8.71154 166.869C3.9003 166.869 2.46794e-05 170.782 2.55234e-05 175.609C3.81839e-05 248.019 58.5043 306.719 130.673 306.719L191.23 306.719C237.418 306.719 274.861 269.151 274.861 222.809C274.861 222.555 274.859 222.302 274.856 222.049C274.859 221.736 274.861 221.423 274.861 221.11L274.861 115.242C274.861 67.961 236.66 29.6324 189.537 29.6324Z" fill="#FEE900"/>
    <path fill-rule="evenodd" clip-rule="evenodd" d="M267.149 222.059L267.15 221.967C267.151 221.821 267.152 221.675 267.153 221.528C267.154 221.389 267.154 221.249 267.154 221.11L267.154 115.242C267.154 72.1786 232.371 37.3293 189.537 37.3293C146.703 37.3293 111.919 72.1786 111.919 115.242L111.919 153.799C111.919 165.235 102.67 174.565 91.186 174.565L8.71155 174.565C8.18961 174.565 7.7064 175 7.7064 175.609C7.70641 243.801 62.7936 299.022 130.673 299.022L191.23 299.022C233.129 299.022 267.154 264.933 267.154 222.809C267.154 222.589 267.153 222.37 267.15 222.151L267.149 222.059ZM104.213 115.242C104.213 67.961 142.413 29.6324 189.537 29.6324C236.66 29.6324 274.861 67.961 274.861 115.242L274.861 221.11C274.861 221.423 274.859 221.736 274.856 222.049C274.859 222.302 274.861 222.555 274.861 222.809C274.861 269.151 237.418 306.719 191.23 306.719L130.673 306.719C58.5043 306.719 3.81839e-05 248.019 2.55234e-05 175.609C2.46794e-05 170.782 3.9003 166.869 8.71154 166.869L91.186 166.869C98.3804 166.869 104.213 161.017 104.213 153.799L104.213 115.242Z" fill="#333333"/>
    <path d="M256.873 91.2042C256.873 86.969 253.426 83.5357 249.175 83.5357L128.876 83.5358C124.625 83.5358 121.178 86.9691 121.178 91.2043L121.178 93.6073C121.178 112.07 134.897 127.037 151.819 127.037C168.742 127.037 182.46 112.07 182.46 93.6073L195.591 93.6073C195.591 112.07 209.31 127.037 226.232 127.037C243.155 127.037 256.873 112.07 256.873 93.6073L256.873 91.2042Z" fill="#333333"/>
    <path fill-rule="evenodd" clip-rule="evenodd" d="M132.948 104.506C134.808 103.476 137.152 104.146 138.185 106.003C140.522 110.208 145.007 113.04 150.148 113.04C152.276 113.04 154 114.761 154 116.885C154 119.008 152.276 120.73 150.148 120.73C142.096 120.73 135.089 116.283 131.448 109.734C130.416 107.877 131.087 105.536 132.948 104.506Z" fill="white"/>
    <path fill-rule="evenodd" clip-rule="evenodd" d="M208.998 104.506C210.858 103.476 213.203 104.146 214.235 106.003C216.573 110.208 221.057 113.04 226.199 113.04C228.327 113.04 230.051 114.761 230.051 116.885C230.051 119.008 228.327 120.73 226.199 120.73C218.147 120.73 211.14 116.283 207.499 109.734C206.467 107.877 207.138 105.536 208.998 104.506Z" fill="white"/>
    <path fill-rule="evenodd" clip-rule="evenodd" d="M297.48 134.821C299.321 142.133 294.929 149.564 287.67 151.418L241.965 155.872L286.754 158.885C294.122 160.23 299.013 167.337 297.679 174.76C296.344 182.183 289.288 187.11 281.92 185.765L203.956 171.537C197.679 170.392 193.043 164.993 192.823 158.57C192.602 152.147 196.856 146.438 203.04 144.858L281.004 124.939C288.262 123.085 295.639 127.509 297.48 134.821Z" fill="white"/>
    <path fill-rule="evenodd" clip-rule="evenodd" d="M280.209 121.278C289.597 118.883 299.097 124.604 301.462 133.98C303.824 143.346 298.196 152.905 288.819 155.297C288.644 155.341 288.466 155.374 288.286 155.393C297.442 157.417 303.391 166.365 301.718 175.653C300.004 185.168 290.923 191.534 281.392 189.798L203.072 175.53C194.96 174.052 189.005 167.098 188.721 158.868C188.438 150.639 193.9 143.29 201.889 141.253L280.209 121.278ZM293.971 135.86C292.637 130.571 287.316 127.418 282.122 128.743L203.802 148.718C199.367 149.849 196.281 153.951 196.441 158.604C196.601 163.255 199.96 167.13 204.46 167.95L282.78 182.218C288.052 183.178 293.147 179.662 294.115 174.29C295.072 168.977 291.617 163.932 286.445 162.88L241.689 159.874C239.684 159.739 238.117 158.093 238.087 156.088C238.057 154.083 239.573 152.39 241.574 152.196L287.168 147.761C292.218 146.323 295.285 141.07 293.971 135.86Z" fill="#333333"/>
</svg>
